<svg width="20" height="20" viewBox="0 0 20 20" fill="none" xmlns="http://www.w3.org/2000/svg">
<path d="M15 0H5C2.24 0 0 2.23112 0 4.98249V10.9655V11.966C0 14.7174 2.24 16.9485 5 16.9485H6.5C6.77 16.9485 7.13 17.1286 7.3 17.3487L8.8 19.3397C9.46 20.2201 10.54 20.2201 11.2 19.3397L12.7 17.3487C12.89 17.0985 13.19 16.9485 13.5 16.9485H15C17.76 16.9485 20 14.7174 20 11.966V4.98249C20 2.23112 17.76 0 15 0ZM6 10.005C5.44 10.005 5 9.55478 5 9.0045C5 8.45423 5.45 8.004 6 8.004C6.55 8.004 7 8.45423 7 9.0045C7 9.55478 6.56 10.005 6 10.005ZM10 10.005C9.44 10.005 9 9.55478 9 9.0045C9 8.45423 9.45 8.004 10 8.004C10.55 8.004 11 8.45423 11 9.0045C11 9.55478 10.56 10.005 10 10.005ZM14 10.005C13.44 10.005 13 9.55478 13 9.0045C13 8.45423 13.45 8.004 14 8.004C14.55 8.004 15 8.45423 15 9.0045C15 9.55478 14.56 10.005 14 10.005Z" fill="url(#paint0_linear_1118_14513)"/>
<defs>
<linearGradient id="paint0_linear_1118_14513" x1="8.5625" y1="-7.71342e-08" x2="8.5625" y2="20" gradientUnits="userSpaceOnUse">
<stop offset="0.00663796" stop-color="#4B9A87"/>
<stop offset="1" stop-color="#6ADEC3"/>
</linearGradient>
</defs>
</svg>
