<svg width="14" height="14" viewBox="0 0 14 14" fill="none" xmlns="http://www.w3.org/2000/svg">
<path d="M12.75 0.75C12.6906 0.75 12.6297 0.760938 12.5688 0.785938L3.5625 4.40469H1C0.8625 4.40469 0.75 4.52031 0.75 4.66406V9.33594C0.75 9.47969 0.8625 9.59531 1 9.59531H2.58906C2.53125 9.77656 2.5 9.96875 2.5 10.1641C2.5 11.1938 3.34063 12.0312 4.375 12.0312C5.24062 12.0312 5.97031 11.4437 6.18594 10.65L12.5703 13.2156C12.6313 13.2391 12.6922 13.2516 12.7516 13.2516C13.0156 13.2516 13.2516 13.0297 13.2516 12.7328V1.26875C13.25 0.971875 13.0156 0.75 12.75 0.75ZM4.375 10.9109C3.96094 10.9109 3.625 10.5766 3.625 10.1641C3.625 9.98906 3.68594 9.82187 3.79688 9.68906L5.12344 10.2219C5.09219 10.6062 4.76875 10.9109 4.375 10.9109ZM12.125 11.8234L3.98125 8.55156L3.77969 8.47031H1.875V5.52969H3.77969L3.98125 5.44844L12.125 2.17656V11.8234Z" fill="url(#paint0_linear_1065_12263)"/>
<defs>
<linearGradient id="paint0_linear_1065_12263" x1="0.75" y1="13.2516" x2="15.2483" y2="13.2516" gradientUnits="userSpaceOnUse">
<stop offset="0.00663796" stop-color="#91FFD4"/>
<stop offset="0.492547" stop-color="#87EBD5"/>
<stop offset="1" stop-color="#9CFBF8"/>
</linearGradient>
</defs>
</svg>
