<svg width="19" height="19" viewBox="0 0 19 19" fill="none" xmlns="http://www.w3.org/2000/svg">
<path d="M13.665 0.399107L4.58017 3.41832C-1.52672 5.46133 -1.52672 8.79253 4.58017 10.8255L7.27645 11.7212L8.17186 14.4183C10.2041 20.5272 13.5443 20.5272 15.5766 14.4183L18.6049 5.34056C19.953 1.26462 17.7397 -0.959541 13.665 0.399107ZM13.987 5.81357L10.1639 9.65804C10.013 9.809 9.82183 9.87945 9.63067 9.87945C9.43952 9.87945 9.24836 9.809 9.09745 9.65804C8.80569 9.36618 8.80569 8.88311 9.09745 8.59125L12.9205 4.74678C13.2123 4.45492 13.6952 4.45492 13.987 4.74678C14.2787 5.03864 14.2787 5.52171 13.987 5.81357Z" fill="url(#paint0_linear_1118_14516)"/>
<defs>
<linearGradient id="paint0_linear_1118_14516" x1="8.13438" y1="-7.32775e-08" x2="8.13438" y2="19" gradientUnits="userSpaceOnUse">
<stop offset="0.00663796" stop-color="#4B9A87"/>
<stop offset="1" stop-color="#6ADEC3"/>
</linearGradient>
</defs>
</svg>
