<svg width="30" height="28" viewBox="0 0 30 28" fill="none" xmlns="http://www.w3.org/2000/svg">
<path d="M13.2311 2.49565C13.9815 1.07336 16.0185 1.07336 16.7689 2.49566L18.9289 6.58958C19.5077 7.68656 20.5626 8.45299 21.7847 8.66446L26.3457 9.45363C27.9303 9.7278 28.5597 11.6651 27.439 12.8183L24.2129 16.1376C23.3484 17.0271 22.9455 18.2672 23.122 19.4948L23.7809 24.0765C24.0098 25.6682 22.3619 26.8655 20.9188 26.156L16.765 24.1135C15.652 23.5662 14.348 23.5662 13.235 24.1135L9.0812 26.156C7.6381 26.8655 5.99016 25.6682 6.21907 24.0765L6.87795 19.4948C7.0545 18.2672 6.65156 17.0271 5.78713 16.1376L2.56105 12.8183C1.44026 11.6651 2.06971 9.7278 3.65428 9.45363L8.21531 8.66445C9.43745 8.45299 10.4924 7.68656 11.0711 6.58958L13.2311 2.49565Z" stroke="url(#paint0_linear_1149_22513)" stroke-width="2"/>
<defs>
<linearGradient id="paint0_linear_1149_22513" x1="12.4125" y1="-3" x2="12.4125" y2="33" gradientUnits="userSpaceOnUse">
<stop offset="0.00663796" stop-color="#4B9A87"/>
<stop offset="1" stop-color="#6ADEC3"/>
</linearGradient>
</defs>
</svg>
