<svg width="14" height="14" viewBox="0 0 14 14" fill="none" xmlns="http://www.w3.org/2000/svg">
<path d="M13.3636 1.30123e-05H8.90909C8.54476 -0.00147622 8.1915 0.124907 7.91114 0.357048C7.63077 0.589188 7.44115 0.912303 7.37545 1.26985L6.79 4.4762C6.74954 4.69958 6.75877 4.92912 6.81706 5.14855C6.87534 5.36798 6.98124 5.57195 7.12727 5.74603C7.27411 5.9202 7.45718 6.06039 7.66377 6.15688C7.87037 6.25336 8.09553 6.30382 8.32364 6.30476H10.1818L10.0227 6.72381C9.90528 7.03452 9.86448 7.36887 9.90378 7.69862C9.94308 8.02838 10.0613 8.34385 10.2485 8.61842C10.4357 8.89299 10.6864 9.11859 10.9794 9.27617C11.2724 9.43375 11.599 9.51868 11.9318 9.52381C12.0553 9.52478 12.1764 9.48988 12.2804 9.42336C12.3843 9.35685 12.4666 9.26159 12.5173 9.1492L13.9427 5.93651C13.9752 5.86652 13.9946 5.79122 14 5.71429V0.634933C14 0.466541 13.933 0.305047 13.8136 0.185977C13.6943 0.0669061 13.5324 1.30123e-05 13.3636 1.30123e-05ZM12.7273 5.54286L11.5627 8.16508C11.4491 8.10337 11.3511 8.01649 11.2764 7.91111C11.2015 7.80534 11.1541 7.68265 11.1386 7.55409C11.123 7.42552 11.1398 7.29511 11.1873 7.1746L11.4291 6.53968C11.4927 6.37502 11.5144 6.19717 11.4922 6.02209C11.47 5.84701 11.4046 5.68017 11.3018 5.53651C11.2006 5.3934 11.0661 5.27701 10.9098 5.19736C10.7535 5.11772 10.5801 5.07723 10.4045 5.07937H8.31091C8.26863 5.07949 8.22683 5.07047 8.18839 5.05293C8.14994 5.03539 8.11575 5.00976 8.08818 4.97778C8.03878 4.91008 8.0182 4.82564 8.03091 4.74286L8.61636 1.56826C8.61362 1.52891 8.61927 1.48943 8.63292 1.45241C8.64657 1.41539 8.66793 1.38168 8.69558 1.35349C8.72324 1.3253 8.75656 1.30327 8.79336 1.28886C8.83016 1.27444 8.8696 1.26796 8.90909 1.26985H12.7273V5.54286ZM5.68909 7.65079H3.85L4.00909 7.23175C4.12485 6.91922 4.16327 6.58343 4.1211 6.25291C4.07893 5.92239 3.95742 5.60692 3.76688 5.33329C3.57634 5.05966 3.32241 4.83597 3.02667 4.68123C2.73093 4.52648 2.40212 4.44526 2.06818 4.44445C1.94469 4.44348 1.82358 4.47838 1.71962 4.54489C1.61567 4.61141 1.53336 4.70667 1.48273 4.81905L0.0572727 8.03174C0.0208061 8.11155 0.00130538 8.19802 0 8.28571V13.3651C0 13.5335 0.0670452 13.695 0.186387 13.814C0.305728 13.9331 0.467589 14 0.636364 14H5.09091C5.45524 14.0015 5.8085 13.8751 6.08886 13.643C6.36923 13.4108 6.55885 13.0877 6.62455 12.7301L7.21 9.55555C7.25046 9.33216 7.24123 9.10263 7.18294 8.8832C7.12466 8.66376 7.01876 8.45979 6.87273 8.28571C6.73474 8.09917 6.55702 7.94547 6.35235 7.83568C6.14768 7.72589 5.92116 7.66275 5.68909 7.65079ZM5.38364 12.4635C5.37271 12.5319 5.33671 12.5938 5.28262 12.6372C5.22853 12.6806 5.16021 12.7024 5.09091 12.6984H1.27273V8.4254L2.43727 5.80318C2.55093 5.86488 2.64889 5.95176 2.72364 6.05715C2.79853 6.16291 2.84588 6.2856 2.86143 6.41417C2.87698 6.54274 2.86024 6.67314 2.81273 6.79365L2.57091 7.42857C2.50729 7.59324 2.48562 7.77108 2.50783 7.94616C2.53004 8.12124 2.59545 8.28809 2.69818 8.43174C2.79793 8.5772 2.93186 8.69606 3.08827 8.77797C3.24468 8.85987 3.41881 8.90231 3.59545 8.90158H5.68909C5.73137 8.90147 5.77317 8.91049 5.81161 8.92802C5.85006 8.94556 5.88425 8.9712 5.91182 9.00317C5.96122 9.07088 5.9818 9.15531 5.96909 9.23809L5.38364 12.4635Z" fill="#333333"/>
</svg>
