<svg width="14" height="13" viewBox="0 0 14 13" fill="none" xmlns="http://www.w3.org/2000/svg">
<path d="M3.3035 10.6667L0.333496 13V0.666667C0.333496 0.489856 0.403734 0.320286 0.528758 0.195262C0.653782 0.0702379 0.823352 0 1.00016 0H13.0002C13.177 0 13.3465 0.0702379 13.4716 0.195262C13.5966 0.320286 13.6668 0.489856 13.6668 0.666667V10C13.6668 10.1768 13.5966 10.3464 13.4716 10.4714C13.3465 10.5964 13.177 10.6667 13.0002 10.6667H3.3035ZM1.66683 10.2567L2.84216 9.33333H12.3335V1.33333H1.66683V10.2567ZM6.3335 6.66667H7.66683V8H6.3335V6.66667ZM6.3335 2.66667H7.66683V6H6.3335V2.66667Z" fill="#333333"/>
</svg>
